<?xml version="1.0" encoding="UTF-8" standalone="no"?>
<!-- Created with Inkscape (http://www.inkscape.org/) -->

<svg
   xmlns:dc="http://purl.org/dc/elements/1.1/"
   xmlns:cc="http://creativecommons.org/ns#"
   xmlns:rdf="http://www.w3.org/1999/02/22-rdf-syntax-ns#"
   xmlns:svg="http://www.w3.org/2000/svg"
   xmlns="http://www.w3.org/2000/svg"
   xmlns:sodipodi="http://sodipodi.sourceforge.net/DTD/sodipodi-0.dtd"
   xmlns:inkscape="http://www.inkscape.org/namespaces/inkscape"
   width="626.72656"
   height="118.14825"
   id="svg2"
   version="1.1"
   inkscape:version="0.48.4 r9939"
   sodipodi:docname="logo.svg"
   inkscape:export-filename="C:\Source\RichardSlater\HttpRedirection\images\logo.png"
   inkscape:export-xdpi="90"
   inkscape:export-ydpi="90">
  <defs
     id="defs4" />
  <sodipodi:namedview
     id="base"
     pagecolor="#ffffff"
     bordercolor="#666666"
     borderopacity="1.0"
     inkscape:pageopacity="0.0"
     inkscape:pageshadow="2"
     inkscape:zoom="1.4142136"
     inkscape:cx="442.75878"
     inkscape:cy="104.34957"
     inkscape:document-units="px"
     inkscape:current-layer="layer1"
     showgrid="false"
     showguides="true"
     inkscape:guide-bbox="true"
     fit-margin-top="0"
     fit-margin-left="0"
     fit-margin-right="0"
     fit-margin-bottom="0"
     inkscape:window-width="1920"
     inkscape:window-height="1017"
     inkscape:window-x="-8"
     inkscape:window-y="-8"
     inkscape:window-maximized="1">
    <sodipodi:guide
       orientation="0,1"
       position="186.15942,118.06056"
       id="guide3015" />
  </sodipodi:namedview>
  <metadata
     id="metadata7">
    <rdf:RDF>
      <cc:Work
         rdf:about="">
        <dc:format>image/svg+xml</dc:format>
        <dc:type
           rdf:resource="http://purl.org/dc/dcmitype/StillImage" />
        <dc:title></dc:title>
      </cc:Work>
    </rdf:RDF>
  </metadata>
  <g
     inkscape:label="Layer 1"
     inkscape:groupmode="layer"
     id="layer1"
     transform="translate(-44.710937,-122.07552)">
    <g
       style="font-size:40px;font-style:normal;font-variant:normal;font-weight:normal;font-stretch:normal;line-height:125%;letter-spacing:0px;word-spacing:0px;fill:#000000;fill-opacity:1;stroke:none;font-family:Geometr415 Blk BT;-inkscape-font-specification:Geometr415 Blk BT"
       id="text2985"
       transform="translate(164,5)">
      <path
         d="m 86.638397,185.50504 0,-67.96875 16.031253,0 0,24.9375 26.20312,0 0,-24.9375 15.9375,0 0,67.96875 -15.9375,0 0,-28.5 -26.20312,0 0,28.5 z"
         style="font-size:96px"
         id="path2994"
         inkscape:connector-curvature="0" />
      <path
         d="m 172.34152,185.50504 0,-53.76563 -21.60937,0 0,-14.20312 59.34375,0 0,14.20312 -21.51563,0 0,53.76563 z"
         style="font-size:96px"
         id="path2996"
         inkscape:connector-curvature="0"
         sodipodi:nodetypes="ccccccccc" />
      <path
         d="m 237.77902,185.50504 0,-53.76563 -21.60937,0 0,-14.20312 59.34375,0 0,14.20312 -21.51563,0 0,53.76563 z"
         style="font-size:96px"
         id="path2998"
         inkscape:connector-curvature="0"
         sodipodi:nodetypes="ccccccccc" />
      <path
         d="m 299.81027,130.00504 -2.20312,0 0,18.14062 2.95312,0 c 4.09372,0 7.21872,-0.78902 9.375,-2.36719 2.15621,-1.57808 3.23434,-3.85152 3.23438,-6.82031 -4e-5,-3.0937 -1.06254,-5.35932 -3.1875,-6.79687 -2.12504,-1.43745 -5.51566,-2.1562 -10.17188,-2.15625 z m -18.42187,55.5 0,-67.96875 17.48437,0 c 5.37497,6e-5 9.64059,0.39069 12.79688,1.17187 3.15621,0.78132 5.95308,2.09382 8.39062,3.9375 2.5312,1.84381 4.49214,4.1485 5.88281,6.91406 1.39058,2.76568 2.08589,5.69537 2.08594,8.78907 -5e-5,6.87504 -2.44536,12.32816 -7.33594,16.35937 -4.89066,4.03128 -11.52347,6.0469 -19.89843,6.04688 -0.87503,2e-5 -1.53128,-0.008 -1.96875,-0.0234 -0.43753,-0.0156 -0.84378,-0.039 -1.21875,-0.0703 l 0,24.84375 z"
         style="font-size:96px"
         id="path3000"
         inkscape:connector-curvature="0"
         sodipodi:nodetypes="cccssccccccccccsccccc" />
    </g>
    <text
       xml:space="preserve"
       style="font-size:40px;font-style:normal;font-variant:normal;font-weight:normal;font-stretch:normal;line-height:125%;letter-spacing:0px;word-spacing:0px;fill:#000000;fill-opacity:1;stroke:none;font-family:Geometr415 Blk BT;-inkscape-font-specification:Geometr415 Blk BT"
       x="245.71429"
       y="238.50502"
       id="text2989"
       sodipodi:linespacing="125%"><tspan
         sodipodi:role="line"
         id="tspan2991"
         x="245.71429"
         y="238.50502"
         style="font-size:64px">REDIRECTION</tspan></text>
    <g
       style="font-size:42.89674759px;font-style:normal;font-variant:normal;font-weight:normal;font-stretch:normal;line-height:125%;letter-spacing:0px;word-spacing:0px;fill:#000000;fill-opacity:1;stroke:none;font-family:Geometr415 Blk BT;-inkscape-font-specification:Geometr415 Blk BT"
       id="text3002">
      <path
         d="m 57.529691,181.52307 11.084452,0 c 10.75765,6e-5 18.951591,-1.96046 24.581846,-5.88154 5.630129,-3.92097 8.445221,-9.62657 8.445301,-17.11681 -8e-5,-7.69117 -2.802604,-13.32136 -8.407598,-16.89059 -5.605121,-3.56905 -14.540538,-5.35362 -26.806277,-5.35372 l -8.897724,0 z m -12.818754,53.46175 0,-109.33643 23.149162,0 c 8.646329,1.1e-4 15.520693,0.61591 20.623113,1.8474 5.102303,1.23172 9.588863,3.22993 13.459688,5.99466 4.0215,2.86546 7.13821,6.44717 9.35015,10.74513 2.21178,4.29814 3.31771,8.8601 3.3178,13.6859 -9e-5,10.95885 -4.04679,19.46697 -12.14012,25.52441 -8.093469,6.05753 -19.529797,9.08627 -34.309013,9.08623 -1.558395,4e-5 -3.229858,-0.0125 -5.014395,-0.0377 -1.784603,-0.0251 -3.657145,-0.0628 -5.617631,-0.11311 l 0,42.60351 z"
         style="font-size:154.42828369px;font-family:Geometr415 Lt BT;-inkscape-font-specification:Geometr415 Lt BT"
         id="path3007"
         inkscape:connector-curvature="0" />
      <path
         d="m 126.90177,215.07805 c 6.78638,4.17239 12.66792,7.16343 17.64464,8.97312 4.97666,1.80972 9.67686,2.71457 14.10063,2.71456 6.93716,1e-5 12.51708,-1.78456 16.73978,-5.35371 4.22259,-3.56913 6.33391,-8.26933 6.33397,-14.10063 -6e-5,-4.77558 -1.55842,-8.88512 -4.67507,-12.32863 -3.11677,-3.44342 -8.7721,-7.05026 -16.966,-10.82053 l -7.54044,-3.3932 c -8.14371,-3.7199 -14.25146,-8.15619 -18.32328,-13.30888 -4.07185,-5.15257 -6.10777,-10.99641 -6.10776,-17.53154 -1e-5,-8.14358 2.94076,-14.81687 8.82232,-20.01987 5.88152,-5.2028 13.49736,-7.80425 22.84754,-7.80436 4.52422,1.1e-4 9.02335,0.64105 13.4974,1.92281 4.47393,1.28199 8.67144,3.10426 12.59254,5.46682 l 0,13.94982 c -4.67514,-3.51878 -9.21197,-6.13279 -13.6105,-7.84206 -4.39864,-1.70906 -8.75953,-2.56365 -13.08267,-2.56375 -5.78104,1e-4 -10.41841,1.49562 -13.91212,4.48656 -3.49376,2.99114 -5.24063,6.8996 -5.24061,11.72539 -2e-5,4.42381 1.59604,8.30714 4.78818,11.64999 3.19209,3.343 8.4327,6.62309 15.72183,9.84028 l 7.69125,3.3932 c 8.49551,3.77028 14.94258,8.47048 19.34124,14.10063 4.39852,5.63024 6.59781,11.98934 6.59789,19.07732 -8e-5,9.19936 -3.25503,16.72723 -9.76488,22.58363 -6.50997,5.85641 -14.91756,8.78461 -25.22278,8.78461 -4.92646,0 -10.00369,-0.69121 -15.2317,-2.07362 -5.22806,-1.38241 -10.55663,-3.45603 -15.98574,-6.22086 z"
         style="font-size:154.42828369px;font-family:Geometr415 Lt BT;-inkscape-font-specification:Geometr415 Lt BT"
         id="path3009"
         inkscape:connector-curvature="0" />
      <path
         d="m 241.26561,177.06708 0,7.76666 -40.82642,54.42034 0,-9.72717 27.40443,-48.5388 -27.40443,-46.76501 0,-9.57636 z"
         style="font-size:154.42828369px;font-family:Geometr415 Lt BT;-inkscape-font-specification:Geometr415 Lt BT"
         id="path3011"
         inkscape:connector-curvature="0"
         sodipodi:nodetypes="cccccccc" />
    </g>
    <path
       style="color:#000000;fill:#000000;fill-opacity:1;fill-rule:nonzero;stroke:#000000;stroke-width:0.70063078;marker:none;visibility:visible;display:inline;overflow:visible;enable-background:accumulate"
       d="m 517.03125,128.03125 c 0.60596,1.25061 0.96875,2.64206 0.96875,4.125 0,1.40954 -0.32425,2.73456 -0.875,3.9375 l 120.5,0 6,-3.85657 -6,-4.20593 z"
       id="rect3019"
       inkscape:connector-curvature="0"
       sodipodi:nodetypes="csccccc" />
    <path
       sodipodi:type="arc"
       style="color:#000000;fill:#000000;fill-opacity:1;fill-rule:nonzero;stroke:#000000;stroke-width:1;marker:none;visibility:visible;display:inline;overflow:visible;enable-background:accumulate"
       id="path3013-1"
       sodipodi:cx="513.5"
       sodipodi:cy="133.86218"
       sodipodi:rx="9.5"
       sodipodi:ry="9.5"
       d="m 523,133.86218 c 0,5.24671 -4.25329,9.5 -9.5,9.5 -5.24671,0 -9.5,-4.25329 -9.5,-9.5 0,-5.2467 4.25329,-9.5 9.5,-9.5 5.24671,0 9.5,4.2533 9.5,9.5 z"
       transform="translate(-8.2722042,-1.7994767)" />
    <path
       sodipodi:type="arc"
       style="color:#000000;fill:#000000;fill-opacity:1;fill-rule:nonzero;stroke:#000000;stroke-width:1;marker:none;visibility:visible;display:inline;overflow:visible;enable-background:accumulate"
       id="path3013-1-7"
       sodipodi:cx="513.5"
       sodipodi:cy="133.86218"
       sodipodi:rx="9.5"
       sodipodi:ry="9.5"
       d="m 523,133.86218 c 0,5.24671 -4.25329,9.5 -9.5,9.5 -5.24671,0 -9.5,-4.25329 -9.5,-9.5 0,-5.2467 4.25329,-9.5 9.5,-9.5 5.24671,0 9.5,4.2533 9.5,9.5 z"
       transform="translate(141.75,-1.750001)" />
    <path
       style="color:#000000;fill:#000000;fill-opacity:1;fill-rule:nonzero;stroke:#000000;stroke-width:0.70063078;marker:none;visibility:visible;display:inline;overflow:visible;enable-background:accumulate"
       d="m 648.6083,142.7446 c -1.28727,-0.52362 -2.48811,-1.31465 -3.48065,-2.41644 -0.94341,-1.04729 -1.58933,-2.24878 -1.98527,-3.51117 l -43.35282,29.11117 -1.87673,6.8812 7.27298,-0.89085 z"
       id="rect3019-4"
       inkscape:connector-curvature="0"
       sodipodi:nodetypes="csccccc" />
    <path
       sodipodi:type="arc"
       style="color:#000000;fill:#000000;fill-opacity:1;fill-rule:nonzero;stroke:#000000;stroke-width:1;marker:none;visibility:visible;display:inline;overflow:visible;enable-background:accumulate"
       id="path3013-1-0"
       sodipodi:cx="513.5"
       sodipodi:cy="133.86218"
       sodipodi:rx="9.5"
       sodipodi:ry="9.5"
       d="m 523,133.86218 c 0,5.24671 -4.25329,9.5 -9.5,9.5 -5.24671,0 -9.5,-4.25329 -9.5,-9.5 0,-5.2467 4.25329,-9.5 9.5,-9.5 5.24671,0 9.5,4.2533 9.5,9.5 z"
       transform="translate(72.500001,44.999999)" />
    <path
       style="color:#000000;fill:#000000;fill-opacity:1;fill-rule:nonzero;stroke:#000000;stroke-width:0.70063078;marker:none;visibility:visible;display:inline;overflow:visible;enable-background:accumulate"
       d="m 598.20312,174.83093 c 0.60596,1.25061 0.96875,2.64206 0.96875,4.125 0,1.40954 -0.32425,2.73456 -0.875,3.9375 l 66.50001,0 6,-3.85657 -6,-4.20593 z"
       id="rect3019-9"
       inkscape:connector-curvature="0"
       sodipodi:nodetypes="csccccc" />
  </g>
</svg>
